<svg width="40" height="48" viewBox="0 0 40 48" fill="none" xmlns="http://www.w3.org/2000/svg">
	<g clip-path="url(#clip0_84_17)">
		<g opacity="0.9">
			<path d="M14.849 39.33C10.5904 38.1935 6.82625 35.6826 4.14116 32.1872C1.45607 28.6918 0.000318426 24.4076 0 20C0 17.3736 0.517315 14.7728 1.52241 12.3463C2.5275 9.91982 4.00069 7.71504 5.85786 5.85786C7.71504 4.00069 9.91982 2.5275 12.3463 1.52241C14.7728 0.517313 17.3736 0 20 0C22.6264 0 25.2272 0.517313 27.6537 1.52241C30.0802 2.5275 32.285 4.00069 34.1421 5.85786C35.9993 7.71504 37.4725 9.91982 38.4776 12.3463C39.4827 14.7728 40 17.3736 40 20C40.0003 24.3127 38.6071 28.5101 36.028 31.9667C33.449 35.4233 29.8222 37.9541 25.688 39.182L20.308 47.782L14.849 39.33Z" fill="black" />
		</g>
		<path d="M27.85 18.615V13.05H24.7V15.78L20.5 12L10 21.45H13.15V29.85H18.4V23.55H22.6V29.85H27.85V21.45H31L27.85 18.615ZM18.4 19.35C18.4 18.195 19.345 17.25 20.5 17.25C21.655 17.25 22.6 18.195 22.6 19.35H18.4Z" fill="white" />
	</g>
	<defs>
		<clipPath id="clip0_84_17">
			<rect width="40" height="47.782" fill="white" />
		</clipPath>
	</defs>
</svg>
